<?xml version="1.0" encoding="UTF-8"?>
<!DOCTYPE svg PUBLIC "-//W3C//DTD SVG 1.1//EN" "http://www.w3.org/Graphics/SVG/1.1/DTD/svg11.dtd">
<!-- Creator: CorelDRAW X7 -->
<svg xmlns="http://www.w3.org/2000/svg" xml:space="preserve" width="1.82065in" height="0.658067in" version="1.1" style="shape-rendering:geometricPrecision; text-rendering:geometricPrecision; image-rendering:optimizeQuality; fill-rule:evenodd; clip-rule:evenodd"
viewBox="0 0 1821 658"
 xmlns:xlink="http://www.w3.org/1999/xlink">
 <defs>
  <style type="text/css">
   <![CDATA[
    .fil0 {fill:#01AED6}
    .fil2 {fill:#080403}
    .fil1 {fill:white}
   ]]>
  </style>
 </defs>
 <g id="Layer_x0020_1">
  <metadata id="CorelCorpID_0Corel-Layer"/>
  <g id="_1235135248">
   <path class="fil0" d="M327 658c181,0 327,-147 327,-329 0,-182 -146,-329 -327,-329 -181,0 -327,147 -327,329 0,182 146,329 327,329z"/>
   <path class="fil1" d="M509 300c-4,-15 -12,-29 -24,-38 -12,-10 -27,-16 -42,-17l-221 0c-2,0 -4,0 -6,-1 -2,0 -4,-1 -6,-3 -2,-1 -3,-3 -4,-5 -1,-2 -1,-4 -1,-6 0,-2 0,-5 1,-7 1,-2 2,-3 4,-5 2,-1 4,-2 6,-3 2,0 4,-1 6,0l215 0c0,0 -1,-58 -73,-58l-116 0c-49,0 -102,27 -105,91 -3,54 -3,108 0,162 3,37 14,80 95,88 82,7 172,3 204,-4 18,-5 34,-15 46,-29 13,-15 20,-33 21,-52 3,-45 8,-81 0,-113zm-58 70l0 20c0,4 -1,7 -4,10 -2,2 -6,4 -9,4 -4,0 -7,-2 -10,-4 -2,-3 -4,-6 -4,-10l0 -20c-3,-3 -5,-6 -6,-10 -2,-5 -1,-9 0,-13 2,-4 4,-7 8,-10 3,-2 7,-4 12,-4 4,0 8,2 12,4 3,3 6,6 7,10 2,4 2,8 1,13 -1,4 -4,7 -7,10z"/>
   <path class="fil2" d="M1064 197c-58,0 -105,44 -105,98 0,55 47,99 105,99 58,0 105,-44 105,-99 0,-54 -47,-98 -105,-98zm0 150c-14,0 -28,-5 -38,-15 -11,-9 -17,-23 -17,-37 1,-14 7,-27 17,-36 11,-10 24,-15 38,-15 14,0 27,5 37,15 11,9 17,22 18,36 0,7 -2,14 -5,21 -3,6 -7,12 -12,16 -5,5 -11,9 -18,11 -6,3 -13,4 -20,4l0 0z"/>
   <path class="fil2" d="M1306 197c-21,0 -42,8 -59,21l0 -16 -53 0 0 259 53 0 0 -93c17,14 38,22 59,22 25,0 50,-10 68,-29 18,-18 28,-42 28,-68 0,-25 -10,-50 -28,-68 -18,-18 -43,-28 -68,-28zm-10 150c-11,0 -21,-4 -30,-10 -8,-6 -15,-15 -18,-25l0 -37c3,-10 10,-19 18,-25 9,-6 19,-10 30,-10 14,0 28,6 37,16 10,10 16,23 16,37 0,14 -6,28 -16,38 -9,10 -23,15 -37,15l0 1z"/>
   <polygon class="fil2" points="1768,197 1708,319 1647,197 1594,197 1681,373 1638,461 1691,461 1708,427 1734,373 1821,197 "/>
   <path class="fil2" d="M933 396l0 -197 -46 0 0 18c-15,-10 -31,-16 -49,-18 -17,-1 -35,3 -50,11 -16,8 -29,20 -38,35 -9,15 -14,33 -14,50 0,18 5,35 14,50 9,15 22,28 38,36 15,8 33,11 50,10 18,-1 34,-7 49,-17l0 14c0,24 -24,44 -54,44 -10,1 -21,-2 -30,-7 -9,-5 -16,-13 -21,-23l-39 32c10,14 23,26 39,34 16,8 33,12 50,11 54,0 98,-35 101,-80l0 -4 0 1zm-97 -46c-9,0 -19,-3 -28,-8 -8,-5 -15,-12 -19,-21 -5,-9 -7,-19 -7,-29 1,-10 4,-19 10,-27 5,-9 13,-15 22,-19 9,-4 18,-6 28,-5 10,1 19,5 27,11 8,6 14,14 18,23l0 40c-4,10 -11,19 -20,25 -9,6 -20,10 -31,10z"/>
   <path class="fil2" d="M1501 197c-66,0 -87,43 -95,60l44 10c0,0 5,-32 53,-32 47,0 41,32 -4,38 -44,6 -93,17 -93,59 0,36 31,57 74,57 44,0 59,-26 59,-26l0 26 46 0 0 -124c0,-29 -18,-68 -84,-68zm-19 153c-41,0 -36,-33 -12,-36 29,-3 56,-8 70,-21 0,32 -16,57 -58,57z"/>
  </g>
 </g>
</svg>
